<?xml version="1.0" standalone="no"?>
<!DOCTYPE svg PUBLIC "-//W3C//DTD SVG 20010904//EN"
 "http://www.w3.org/TR/2001/REC-SVG-20010904/DTD/svg10.dtd">
<svg version="1.0" xmlns="http://www.w3.org/2000/svg"
 width="4096.000000pt" height="4096.000000pt" viewBox="0 0 4096.000000 4096.000000"
 preserveAspectRatio="xMidYMid meet">
<metadata>
Created by potrace 1.16, written by Peter Selinger 2001-2019
</metadata>
<g transform="translate(0.000000,4096.000000) scale(0.100000,-0.100000)"
fill="#000000" stroke="none">
<path d="M19825 23329 c-1142 -118 -2063 -956 -2280 -2072 -35 -178 -45 -294
-45 -499 0 -340 56 -641 177 -948 234 -593 682 -1078 1258 -1360 191 -94 312
-140 489 -185 346 -88 689 -107 1031 -56 1145 170 2027 1072 2181 2231 20 150
22 460 5 605 -39 322 -121 594 -266 880 -136 269 -264 445 -484 665 -397 397
-877 636 -1451 725 -126 19 -486 28 -615 14z"/>
<path d="M25365 21770 c-110 -23 -155 -40 -265 -96 -263 -135 -450 -370 -527
-663 -22 -83 -26 -117 -26 -251 0 -135 4 -167 26 -254 90 -340 342 -610 672
-723 161 -55 104 -53 1875 -53 1779 0 1720 -2 1882 55 271 95 478 283 604 549
57 121 84 233 91 381 9 188 -24 341 -109 509 -53 106 -87 155 -171 243 -133
139 -290 235 -477 290 l-95 28 -1695 2 c-1632 2 -1698 1 -1785 -17z"/>
<path d="M11336 21689 c-346 -51 -645 -276 -793 -597 -62 -133 -86 -246 -87
-412 -1 -190 26 -312 102 -465 134 -269 370 -463 669 -548 l78 -22 1693 -3
c1628 -2 1696 -2 1785 17 309 63 574 265 715 546 171 339 145 728 -71 1050
-52 77 -184 209 -266 264 -89 61 -215 118 -329 149 l-97 27 -1670 1 c-918 1
-1697 -2 -1729 -7z"/>
</g>
</svg>
